<?xml version="1.0" standalone="no"?>
<!DOCTYPE svg PUBLIC "-//W3C//DTD SVG 20010904//EN"
 "http://www.w3.org/TR/2001/REC-SVG-20010904/DTD/svg10.dtd">
<svg version="1.0" xmlns="http://www.w3.org/2000/svg"
 width="700.000000pt" height="700.000000pt" viewBox="0 0 700.000000 700.000000"
 preserveAspectRatio="xMidYMid meet">
<metadata>
Created by potrace 1.14, written by Peter Selinger 2001-2017
</metadata>
<g transform="translate(0.000000,700.000000) scale(0.100000,-0.100000)"
fill="#000000" stroke="none">
<path d="M1362 6565 c-4 -5 -12 -19 -18 -30 -23 -41 -144 -251 -154 -265 -5
-8 -22 -37 -37 -65 -15 -27 -32 -58 -38 -67 -31 -52 -224 -386 -246 -426 -29
-51 -467 -812 -584 -1012 -40 -69 -83 -143 -95 -165 -12 -22 -33 -58 -46 -80
l-23 -41 46 -79 c25 -44 59 -105 76 -135 16 -30 33 -59 38 -65 4 -5 33 -55 64
-110 32 -55 65 -113 75 -130 9 -16 61 -106 115 -200 54 -93 120 -207 146 -253
27 -45 49 -84 49 -87 0 -2 22 -40 50 -85 28 -45 50 -83 50 -86 0 -2 27 -49 60
-105 33 -55 60 -102 60 -104 0 -2 26 -47 58 -102 54 -91 71 -120 131 -228 13
-22 35 -60 50 -85 37 -62 17 -27 329 -570 96 -168 215 -373 263 -457 49 -83
98 -169 110 -190 12 -21 43 -75 70 -121 27 -45 49 -87 49 -92 0 -6 5 -10 10
-10 6 0 10 -4 10 -10 0 -5 57 -107 126 -227 69 -120 155 -269 191 -330 61
-106 67 -113 96 -113 18 -1 750 -2 1628 -3 l1596 -2 48 85 c49 86 128 223 145
250 5 8 17 29 26 45 9 17 220 383 469 815 249 432 462 801 472 820 11 19 35
60 53 90 l32 55 -23 45 c-13 25 -33 61 -45 80 -16 28 -180 310 -384 665 -9 17
-52 91 -95 165 -43 74 -87 151 -98 170 -77 137 -151 261 -158 266 -4 2 33 75
83 162 50 86 99 171 108 187 82 142 142 249 149 269 18 47 25 104 25 201 -1
79 -7 118 -28 185 -118 376 -485 752 -961 985 -311 153 -573 217 -850 210 -77
-2 -149 -5 -160 -8 -188 -46 -275 -88 -359 -171 -50 -50 -90 -112 -225 -346
-190 -331 -189 -330 -199 -330 -7 0 -23 26 -96 154 -15 28 -96 168 -179 311
-82 143 -162 281 -176 306 -14 26 -82 143 -150 260 l-124 214 -799 0 c-522 0
-802 -3 -806 -10z m301 -1265 c112 -195 214 -371 225 -390 32 -57 270 -469
394 -685 64 -110 125 -216 135 -235 11 -19 52 -89 90 -155 39 -66 81 -140 95
-165 28 -49 225 -391 488 -846 93 -159 174 -302 180 -316 11 -23 0 -46 -138
-284 -82 -143 -176 -306 -209 -364 -51 -89 -158 -275 -397 -688 -27 -46 -50
-82 -51 -80 -3 3 -199 342 -240 413 -28 51 -153 266 -265 460 -48 83 -98 170
-112 195 -14 25 -82 142 -150 260 -203 350 -468 811 -501 870 -16 30 -33 60
-37 65 -9 11 -444 766 -492 852 l-28 52 24 43 c13 24 51 89 85 146 34 57 61
105 61 107 0 1 37 65 81 141 45 77 93 159 107 184 30 56 47 85 74 130 41 70
293 507 332 577 22 40 41 71 42 70 1 -1 94 -162 207 -357z m2566 -270 c213
-266 566 -517 921 -653 111 -43 274 -90 354 -103 21 -3 48 -8 60 -10 11 -2 55
-7 96 -10 41 -4 76 -8 78 -9 2 -1 -23 -47 -54 -101 -32 -55 -65 -111 -73 -127
l-16 -27 -569 2 -569 3 -174 300 c-96 165 -189 327 -208 360 -18 33 -54 95
-79 138 -25 43 -46 82 -46 87 0 7 112 206 157 278 14 23 14 23 50 -30 20 -29
52 -73 72 -98z m1838 -2823 c-2 -7 -123 -217 -267 -467 -221 -383 -380 -658
-425 -738 -73 -128 -107 -182 -113 -183 -10 -1 -2295 -1 -2309 0 -8 1 -2 19
16 49 15 26 39 68 53 93 14 24 125 217 248 429 122 212 274 475 337 585 63
110 122 210 129 223 l14 22 1161 0 c932 0 1160 -2 1156 -13z"/>
</g>
</svg>
