<svg width="21" height="20" viewBox="0 0 21 20" fill="none" xmlns="http://www.w3.org/2000/svg">
<path fill-rule="evenodd" clip-rule="evenodd" d="M7.82992 0C5.79075 0 4.15075 1.71083 4.15075 3.80667C4.15075 5.08083 4.75742 6.2125 5.68992 6.90333C5.20932 7.2634 4.81976 7.73106 4.55247 8.26882C4.28518 8.80658 4.1476 9.39948 4.15075 10C4.15075 11.275 4.75742 12.4058 5.68992 13.0967C5.20932 13.4567 4.81976 13.9244 4.55247 14.4622C4.28518 14.9999 4.1476 15.5928 4.15075 16.1933C4.15075 18.2892 5.79075 20 7.82992 20C9.86825 20 11.5091 18.2892 11.5091 16.1933V12.975C12.1535 13.5123 12.9659 13.8069 13.8049 13.8075C15.8441 13.8067 17.4841 12.0958 17.4841 10C17.4874 9.39945 17.3499 8.80648 17.0826 8.26869C16.8153 7.7309 16.4257 7.26327 15.9449 6.90333C16.4255 6.54326 16.8151 6.0756 17.0824 5.53784C17.3497 5.00008 17.4872 4.40718 17.4841 3.80667C17.4841 1.71083 15.8441 0 13.8049 0H7.82992ZM5.53325 3.80667C5.53325 2.48083 6.56825 1.41917 7.82992 1.41917H10.1257V6.19417H7.82992C6.56825 6.19417 5.53325 5.13167 5.53325 3.80667ZM13.8049 6.19333H11.5091V1.41833H13.8049C15.0674 1.41833 16.1016 2.48083 16.1016 3.80667C16.1016 5.13167 15.0674 6.19333 13.8049 6.19333ZM5.53408 10C5.53408 8.675 6.56908 7.6125 7.83075 7.6125H10.1266V12.3875H7.82992C6.56742 12.3875 5.53325 11.325 5.53325 10H5.53408ZM11.5091 10C11.5091 8.675 12.5441 7.6125 13.8057 7.6125C15.0682 7.6125 16.1024 8.67417 16.1024 10C16.1024 11.325 15.0682 12.3875 13.8057 12.3875C12.5441 12.3875 11.5099 11.3258 11.5099 10H11.5091ZM5.53408 16.1933C5.53408 14.8683 6.56908 13.8067 7.83075 13.8067H10.1266V16.1933C10.1266 17.5192 9.09325 18.5808 7.83075 18.5808C6.56908 18.5808 5.53408 17.5192 5.53408 16.1933Z" />
</svg>
