<svg width="21" height="20" viewBox="0 0 21 20" fill="none" xmlns="http://www.w3.org/2000/svg">
<path d="M20.8174 10C20.8174 12.6522 19.7639 15.1957 17.8885 17.0711C16.0131 18.9464 13.4696 20 10.8174 20C8.16528 20 5.62174 18.9464 3.74638 17.0711C1.87101 15.1957 0.817444 12.6522 0.817444 10C0.817444 7.34784 1.87101 4.8043 3.74638 2.92893C5.62174 1.05357 8.16528 0 10.8174 0C13.4696 0 16.0131 1.05357 17.8885 2.92893C19.7639 4.8043 20.8174 7.34784 20.8174 10ZM11.1762 7.3825C10.2037 7.7875 8.25869 8.625 5.34369 9.895C4.87119 10.0825 4.62244 10.2675 4.59994 10.4475C4.56244 10.7512 4.94369 10.8713 5.46244 11.035L5.68119 11.1038C6.19119 11.27 6.87869 11.4637 7.23494 11.4713C7.55994 11.4788 7.92119 11.3463 8.31994 11.0713C11.0437 9.2325 12.4499 8.30375 12.5374 8.28375C12.5999 8.26875 12.6874 8.25125 12.7449 8.30375C12.8037 8.355 12.7974 8.45375 12.7912 8.48C12.7537 8.64125 11.2574 10.0312 10.4837 10.7512C10.2424 10.9762 10.0712 11.135 10.0362 11.1713C9.95912 11.25 9.88078 11.3275 9.80119 11.4038C9.32619 11.8612 8.97119 12.2038 9.81994 12.7638C10.2287 13.0338 10.5562 13.255 10.8824 13.4775C11.2374 13.72 11.5924 13.9613 12.0524 14.2638C12.1687 14.3387 12.2812 14.42 12.3899 14.4975C12.8037 14.7925 13.1774 15.0575 13.6362 15.015C13.9037 14.99 14.1799 14.74 14.3199 13.99C14.6512 12.2188 15.3024 8.3825 15.4524 6.80125C15.4616 6.6698 15.4561 6.53775 15.4362 6.4075C15.4244 6.3024 15.3736 6.20557 15.2937 6.13625C15.18 6.05774 15.0444 6.01706 14.9062 6.02C14.5312 6.02625 13.9524 6.2275 11.1762 7.3825Z"/>
</svg>
