<svg width="21" height="20" viewBox="0 0 21 20" fill="none" xmlns="http://www.w3.org/2000/svg">
<path d="M0.879944 4.44375C1.00597 3.89155 1.31576 3.39852 1.7586 3.04539C2.20143 2.69225 2.75105 2.49996 3.31744 2.5H18.3174C18.8838 2.49996 19.4335 2.69225 19.8763 3.04539C20.3191 3.39852 20.6289 3.89155 20.7549 4.44375L10.8174 10.5175L0.879944 4.44375ZM0.817444 5.87125V14.7512L8.07119 10.3038L0.817444 5.87125ZM9.26869 11.0375L1.05619 16.0713C1.2591 16.4991 1.57935 16.8605 1.97967 17.1135C2.37999 17.3664 2.84391 17.5005 3.31744 17.5H18.3174C18.7909 17.5001 19.2546 17.3658 19.6547 17.1126C20.0548 16.8595 20.3748 16.4979 20.5774 16.07L12.3649 11.0363L10.8174 11.9825L9.26869 11.0363V11.0375ZM13.5637 10.305L20.8174 14.7512V5.87125L13.5637 10.3038V10.305Z" />
</svg>
