<svg width="21" height="20" viewBox="0 0 21 20" fill="none" xmlns="http://www.w3.org/2000/svg">
<path d="M10.8174 0C5.29244 0 0.817444 4.475 0.817444 10C0.817444 14.425 3.67994 18.1625 7.65494 19.4875C8.15494 19.575 8.34244 19.275 8.34244 19.0125C8.34244 18.775 8.32994 17.9875 8.32994 17.15C5.81744 17.6125 5.16744 16.5375 4.96744 15.975C4.85494 15.6875 4.36744 14.8 3.94244 14.5625C3.59244 14.375 3.09244 13.9125 3.92994 13.9C4.71744 13.8875 5.27994 14.625 5.46744 14.925C6.36744 16.4375 7.80494 16.0125 8.37994 15.75C8.46744 15.1 8.72994 14.6625 9.01744 14.4125C6.79244 14.1625 4.46744 13.3 4.46744 9.475C4.46744 8.3875 4.85494 7.4875 5.49244 6.7875C5.39244 6.5375 5.04244 5.5125 5.59244 4.1375C5.59244 4.1375 6.42994 3.875 8.34244 5.1625C9.14244 4.9375 9.99244 4.825 10.8424 4.825C11.6924 4.825 12.5424 4.9375 13.3424 5.1625C15.2549 3.8625 16.0924 4.1375 16.0924 4.1375C16.6424 5.5125 16.2924 6.5375 16.1924 6.7875C16.8299 7.4875 17.2174 8.375 17.2174 9.475C17.2174 13.3125 14.8799 14.1625 12.6549 14.4125C13.0174 14.725 13.3299 15.325 13.3299 16.2625C13.3299 17.6 13.3174 18.675 13.3174 19.0125C13.3174 19.275 13.5049 19.5875 14.0049 19.4875C15.9902 18.8175 17.7154 17.5417 18.9375 15.8397C20.1596 14.1377 20.8171 12.0953 20.8174 10C20.8174 4.475 16.3424 0 10.8174 0Z" />
</svg>
